<svg id="Layer_1" data-name="Layer 1" xmlns="http://www.w3.org/2000/svg" viewBox="0 0 200 200"><defs><style>.cls-1{fill:#f4743b;}.cls-2{font-size:25.53238px;}.cls-2,.cls-7{font-family:Raleway;}.cls-3{letter-spacing:-0.00599em;}.cls-4{letter-spacing:-0.01599em;}.cls-5{letter-spacing:-0.027em;}.cls-6{letter-spacing:-0.03498em;}.cls-7{font-size:14.38246px;}.cls-8{letter-spacing:-0.00499em;}.cls-9{letter-spacing:-0.02em;}</style></defs><title>ashley-williams-escape-room</title><rect class="cls-1" width="200" height="200"/><path d="M134.33364,40.85908l3.08792-3.43155C150.62,51.31728,154.824,75.694,143.33543,95.33137c-12.10247,20.6866-35.257,29.57642-57.38009,23.2583C60.866,111.42444,49.997,88.87809,50.00773,74.52161c4.16538-1.014,4.41076-.86072,5.11578,3.19613a45.24276,45.24276,0,0,0,52.24373,37.1207c.8231-.13659,1.63091-.36539,2.82026-.63659-.83552-3.6974-1.63824-7.24963-2.31537-10.24606,4.7336-2.76178,9.43711-5.01449,13.57744-8.0383,6.02142-4.39763,9.50122-10.66558,11.1524-17.93067.95831-4.21652.96109-4.21589,5.66621-3.59615A37.86762,37.86762,0,0,1,132.857,90.49993a38.51223,38.51223,0,0,1-15.68068,14.41529c-3.64113,1.86284-3.65113,1.85655-2.60219,5.90717.13878.53593.37522,1.04659.56224,1.55747C139.56612,105.48361,157.33412,69.77846,134.33364,40.85908Z"/><path d="M97.84663,32.09555v4.37C87.13041,37.609,78.31371,42.18377,72.05831,51.108a32.64322,32.64322,0,0,0-6.02594,20.03668c.34215,13.2296,9.682,26.69741,20.88705,29.96138.27918-.747.54147-1.51968.85386-2.27156,1.02246-2.461.45941-3.96785-2.06667-5.3792-6.22693-3.479-10.13091-8.96882-12.1466-15.78867a26.24767,26.24767,0,0,1-.53409-2.97476c3.88348-1.21084,4.37872-1.00767,5.54449,2.31653,2.66729,7.60585,7.913,12.51023,15.88212,14.9144l-3.62516,15.64588c-17.65272-1.67108-32.30763-23.0732-29.54483-42.75054C63.82533,46.70782,82.91057,29.53672,97.84663,32.09555Z"/><path d="M106.20107,96.77642c-1.22815-5.094-2.32148-9.77368-3.49791-14.43232-.43045-1.70459.69055-2.025,1.84157-2.58846a10.50867,10.50867,0,0,0,5.90288-10.181c-.57463-4.92076-3.42538-8.3173-8.0197-9.5551A10.395,10.395,0,0,0,91.14769,64.0414c-3.645,4.95948-2.36595,12.51162,3.13211,15.214,3.28187,1.61306,2.78777,3.32184,1.31363,6.41054-2.1458-1.25912-4.51016-2.20551-6.31586-3.789a15.31076,15.31076,0,0,1-3.69552-18.35261,15.65962,15.65962,0,0,1,29.5774,3.8976c1.04932,5.03216-.099,9.74375-3.69509,13.0523-3.2217,2.96411-3.37809,5.63613-1.44634,9.38046.78582-.44185,1.69034-.85815,2.4956-1.41738a21.66723,21.66723,0,0,0,7.03247-27.94307c-1.74581-3.31461-.68879-4.66495,2.02547-6.45067,5.282,7.32155,6.78063,15.33051,4.26741,23.8717C122.98085,87.62864,116.36109,93.75835,106.20107,96.77642Z"/><path d="M49.98822,67.06943c-.28743-13.9883,9.46172-33.40493,28.42324-42.27578C97.9412,15.657,120.01775,20.687,132.78708,32.72583l-3.39809,2.81c-3.61355-2.10839-7.1683-4.65694-11.08379-6.391A45.04374,45.04374,0,0,0,54.92668,64.65609C54.42377,68.44464,52.07963,66.85328,49.98822,67.06943Z"/><path d="M72.752,66.78855c1.73338-10.31623,7.11549-17.67336,16.60283-21.55666,9.436-3.86229,18.46439-2.60182,26.82846,3.33494-2.20323,3.84744-2.493,3.93126-6.23309,1.97526C97.74957,44.16132,83.0988,50.34431,78.51851,63.807,77.25775,67.51275,77.25775,67.51275,72.752,66.78855Z"/><path d="M138.262,66.99579h-4.68978c-2.75823-16.24881-12.1823-26.47278-28.484-30.1794-.05881-.72595-.13744-1.37672-.158-2.02931-.02647-.84177-.00643-1.685-.00643-2.53233C119.45622,33.06014,136.76015,46.74943,138.262,66.99579Z"/><text class="cls-2" transform="translate(10.06641 149.07922)"><tspan class="cls-3">A</tspan><tspan x="17.18311" y="0">shl</tspan><tspan class="cls-4" x="51.14063" y="0">e</tspan><tspan class="cls-5" x="65.71973" y="0">y</tspan><tspan class="cls-6" x="78.86865" y="0"> </tspan><tspan x="84.51172" y="0">Williams</tspan></text><text class="cls-7" transform="translate(53.99829 172.74466)"><tspan class="cls-8">E</tspan><tspan x="8.74463" y="0">scape </tspan><tspan class="cls-9" x="52.50977" y="0">R</tspan><tspan x="61.71436" y="0">oom</tspan></text></svg>