<?xml version="1.0" encoding="utf-8"?>
<!-- Generator: Adobe Illustrator 23.0.1, SVG Export Plug-In . SVG Version: 6.00 Build 0)  -->
<svg version="1.1" id="Layer_1" xmlns="http://www.w3.org/2000/svg" xmlns:xlink="http://www.w3.org/1999/xlink" x="0px" y="0px"
	 viewBox="0 0 512 428" style="enable-background:new 0 0 512 428;" xml:space="preserve">
<style type="text/css">
	.st0{fill:#FFFFFF;}
	.st1{fill:#1D3E53;}
	.st2{font-family:'MyriadPro-Regular';}
	.st3{font-size:222.4474px;}
</style>
<g>
	<path class="st0" d="M485.2,130H26.8c-23.3,0-24.5,12.1-23.2,27l17.1,240.9c1.2,14.7,4.6,27,27.8,27h416.3
		c23.7,0,26.5-12.1,27.8-27L508.5,154C509.7,139.2,508.5,130,485.2,130z"/>
	<g>
		<path class="st0" d="M480.1,65.9c-0.7-16.3-5.9-20.1-19.9-20.1c0,0-159.8,0-188.5,0s-32.1,0.4-53.8-22.9
			c-18-19.5-10.9-19.2-48.2-19.2c-29.8,0-99.1,0-99.1,0c-22.9,0-31.1-2-33.2,21.9c-2,22-6.6,75.3-7.2,83.5h452.1L480.1,65.9z"/>
	</g>
</g>
<text transform="matrix(1 0 0 1 85.2744 345.1656)" class="st1 st2 st3">&lt;/&gt;</text>
</svg>
