<?xml version="1.0" encoding="utf-8"?>
<!-- Generator: Adobe Illustrator 23.0.1, SVG Export Plug-In . SVG Version: 6.00 Build 0)  -->
<svg version="1.1" id="Layer_1" xmlns="http://www.w3.org/2000/svg" xmlns:xlink="http://www.w3.org/1999/xlink" x="0px" y="0px"
	 viewBox="0 0 400 400" style="enable-background:new 0 0 400 400;" xml:space="preserve">
<style type="text/css">
	.st0{fill-rule:evenodd;clip-rule:evenodd;fill:#F44336;}
</style>
<g>
	<title>dota-2-app</title>
	<path class="st0" d="M123,219.7l50.7,54.8l-47,11l-25.3-21.9L123,219.7z M256.7,114.5l22.2,12.2l-7.4,40.4l-51.9-33.8L256.7,114.5z
		 M118.6,114.5c2.7-0.2,5.4,0.7,7.4,2.5c4.1,3.3,19.3,14,19.3,14l2.7,4.9c5,0.3,5.1,0.7,11.5,5.3l139.2,94.4
		c-1.1,2.3-17.6,49.9-17.6,49.9h-25.6L101.3,122.7c1.7-0.7,3.4-1.5,4.9-2.5C110,117.8,114.8,114.5,118.6,114.5z M137.5,81.6H81.6
		c-3.5,1.7-6.6,3.7-6.6,10.7v59.2l6.5,18.1l-6.5,9.1v7.4l6.6,4.9v9l-6.6,6.6v24.7l6.6,4.1v27.1c-6.9,4.9-6.6,10.7-6.6,17.4V311
		c15.4,3.8,12.8,7.4,30.4,7.4h25.5c2.4-0.2,4.2-0.7,6.6-0.9c4.1-0.6,7.9-2.6,10.7-5.7l17.3,6.6l6.6-6.6c0,0,8.6,10.7,10.7,13.2
		l5.8-6.6l18.1,6.6c0,0,6.7-6.4,14-6.6h35.4c0.5-0.5,6.6-6.6,6.6-6.6c2.8,1.7,0.3,6.6,25.5,6.6c4.4,0,8.8-0.6,13.2-1.6
		c-1.1-3.6-1.2-2.8-3.3-4.9c0,0,16.4,0,27.1,6.6V216.5l-13.2,4.1c0.3-2.1,6.3-4.9,6.6-9c0.3-5.3-0.3-23.6-1.1-27.5
		c-0.4-2-4.2-7.8-5.5-9.5c1.6-4.3,6.6-7.4,6.6-7.4v-4.9l6.6-3.8v-27.8l-6.6-27.6l6.6-7.1V88l-6.9-6l-22.6-3.7l-5.2,3.7l-2.6-4.3
		c0,0-34.1-2.6-40.3-2.6c-7.9,0-6.8,0.6-9.4,9.5l-11.4,1.2l-1.1-4.1H214l1.9-2.1c2-1.9,1.3-1.1,2.9-4.5h-39.6
		c-0.6,1.1-2.9,3.7-4.7,6.6c-2.1,0-4.2,0.6-6.1,1.7c-2.6,1.7-2.6,4.9-6.1,4.9h-14.8C138.9,88.2,137.5,81.6,137.5,81.6z"/>
</g>
</svg>
