<svg id="Layer_1" data-name="Layer 1" xmlns="http://www.w3.org/2000/svg" viewBox="0 0 200.0014 200"><defs><style>.cls-1{fill:#f44336;fill-rule:evenodd;}</style></defs><title>dota-2-app</title><path class="cls-1" d="M38.42175,115.78947l40.52632,43.8579-37.63158,8.77368L21.05333,150.879ZM145.37966,31.579l17.77893,9.77368-5.92631,32.33158L115.74807,46.61579Zm-110.51054,0a7.99454,7.99454,0,0,1,5.92105,1.97368c3.28948,2.63158,15.42106,11.221,15.42106,11.221l2.2,3.91053c4.00527.2,4.10527.56316,9.16316,4.279l111.37369,75.54737c-.85789,1.85789-14.1,39.91052-14.1,39.91052H144.406L21.05333,38.15789a24.48091,24.48091,0,0,0,3.94737-1.97368C28.03754,34.27368,31.8586,31.579,34.86912,31.579ZM50.0007,5.26316H5.26386C2.48491,6.65263.0007,8.26316.0007,13.81579V61.18421l5.2,14.46315-5.2,7.24738v5.92105l5.26316,3.94737V100L.0007,105.26316V125l5.26316,3.28947V150C-.23088,153.91053.0007,158.55263.0007,163.88947v24.92632c12.31053,3.07368,10.26842,5.92105,24.34211,5.92105H44.73754c1.90526-.121,3.38948-.52105,5.26316-.7a13.839,13.839,0,0,0,8.55263-4.56317l13.81579,5.26316,5.26316-5.26316s6.9,8.54212,8.55263,10.52632l4.60526-5.26316L105.26386,200s5.36842-5.15263,11.18421-5.26316h28.28947c.43158-.41578,5.26316-5.26316,5.26316-5.26316,2.2158,1.32631.25789,5.26316,20.39474,5.26316a46.317,46.317,0,0,0,10.52631-1.31579c-.85262-2.84211-.94737-2.26316-2.63158-3.94737,0,0,13.1579,0,21.71053,5.26316v-81.5421l-10.52632,3.25263c.20527-1.66842,5.06843-3.88422,5.26316-7.23684.24737-4.22632-.23157-18.87369-.84736-21.96842-.3158-1.57895-3.33158-6.20527-4.4158-7.63685,1.28947-3.47894,5.26316-5.92105,5.26316-5.92105V69.73684l5.26316-3.06842v-22.221l-5.26316-22.07895,5.26316-5.7V10.37369L194.44281,5.5579,176.39017,2.57369,172.22175,5.5579l-2.08421-3.47369S142.85332.01053,137.906.01053c-6.33157,0-5.41052.47368-7.55263,7.60526l-9.08421.92632-.87368-3.27895h-9.21053l1.51579-1.66842C114.31123,2.07368,113.74807,2.68421,115.006,0H83.33228C82.83754.90526,81.027,2.95789,79.6007,5.26316a9.78035,9.78035,0,0,0-4.86315,1.36315c-2.08421,1.38948-2.07369,3.9-4.85264,3.9H58.07965C51.13228,10.52632,50.0007,5.26316,50.0007,5.26316Z" transform="translate(0.0007)"/></svg>