<?xml version="1.0" encoding="utf-8"?>
<!-- Generator: Adobe Illustrator 23.0.1, SVG Export Plug-In . SVG Version: 6.00 Build 0)  -->
<svg version="1.1"
	 id="svg2439" xmlns:cc="http://creativecommons.org/ns#" xmlns:dc="http://purl.org/dc/elements/1.1/" xmlns:inkscape="http://www.inkscape.org/namespaces/inkscape" xmlns:rdf="http://www.w3.org/1999/02/22-rdf-syntax-ns#" xmlns:sodipodi="http://sodipodi.sourceforge.net/DTD/sodipodi-0.dtd" xmlns:svg="http://www.w3.org/2000/svg"
	 xmlns="http://www.w3.org/2000/svg" xmlns:xlink="http://www.w3.org/1999/xlink" x="0px" y="0px" viewBox="0 0 439.4 439.4"
	 style="enable-background:new 0 0 439.4 439.4;" xml:space="preserve">
<style type="text/css">
	.st0{fill:#FFFFFF;}
	.st1{fill:none;stroke:#FFFFFF;stroke-width:23;stroke-miterlimit:10;}
</style>
<g id="path2455">
	<path class="st0" d="M220.4,293.5c-13.7,0-26.7-5.2-35.8-14.4L8.2,100.5L30,78.9l176.3,178.7c3.3,3.3,8.4,5.3,14,5.3
		c5.5,0,10.6-1.9,13.9-5.2L410.4,80.3l21.7,21.6L256,279.3C247,288.4,234,293.5,220.4,293.5z"/>
</g>
<g id="path2457">
	
		<rect x="-3.9" y="292.4" transform="matrix(0.6993 -0.7149 0.7149 0.6993 -192.1037 158.8401)" class="st0" width="193.2" height="30.7"/>
</g>
<g id="path2459">
	
		<rect x="331.6" y="213.8" transform="matrix(0.7154 -0.6987 0.6987 0.7154 -116.4035 330.0086)" class="st0" width="30.7" height="188.1"/>
</g>
<rect x="11.8" y="75.6" class="st1" width="416" height="300.1"/>
</svg>
