<?xml version="1.0" encoding="utf-8"?>
<!-- Generator: Adobe Illustrator 23.0.1, SVG Export Plug-In . SVG Version: 6.00 Build 0)  -->
<svg version="1.1" id="Layer_1" xmlns="http://www.w3.org/2000/svg" xmlns:xlink="http://www.w3.org/1999/xlink" x="0px" y="0px"
	 viewBox="0 0 400 400" style="enable-background:new 0 0 400 400;" xml:space="preserve">
<g>
	<g>
		<path d="M337.3,82.6c4.4-4.9,8.4-9.3,12.3-13.7c52.8,55.3,69.6,152.3,23.6,230.5c-48.4,82.3-141,117.7-229.4,92.6
			C43.5,363.5,0.1,273.8,0.1,216.6c16.7-4,17.6-3.4,20.5,12.7c17.3,98.8,109.6,164.2,208.9,147.8c3.3-0.5,6.5-1.5,11.3-2.5
			c-3.3-14.7-6.6-28.9-9.3-40.8c18.9-11,37.7-20,54.3-32c24.1-17.5,38-42.5,44.6-71.4c3.8-16.8,3.8-16.8,22.7-14.3
			c-2.3,23.1-9.6,44.4-21.6,64.1c-15.3,25.1-36.5,44-62.7,57.4c-14.6,7.4-14.6,7.4-10.4,23.5c0.6,2.1,1.5,4.2,2.2,6.2
			C358.2,339.9,429.3,197.7,337.3,82.6z"/>
		<path d="M191.4,47.8c0,5.4,0,10.9,0,17.4c-42.8,4.6-78.1,22.8-103.1,58.3c-16.8,23.9-24.9,50.6-24.1,79.8
			c1.4,52.7,38.7,106.3,83.5,119.3c1.1-3,2.2-6,3.4-9c4.1-9.8,1.8-15.8-8.3-21.4c-24.9-13.8-40.5-35.7-48.6-62.8
			c-1.1-3.9-1.5-8-2.1-11.8c15.5-4.8,17.5-4,22.2,9.2c10.7,30.3,31.6,49.8,63.5,59.4c-4.9,21-9.7,41.7-14.5,62.3
			C92.7,341.5,34.1,256.3,45.2,178C55.4,105.9,131.7,37.6,191.4,47.8z"/>
		<path d="M224.8,305.2c-4.9-20.3-9.3-38.9-14-57.4c-1.7-6.8,2.8-8.1,7.4-10.3c15.6-7.6,25.4-24.8,23.6-40.5
			c-2.3-19.6-13.7-33.1-32.1-38c-17.2-4.6-34.4,1.5-45.1,16c-14.6,19.7-9.5,49.8,12.5,60.6c13.1,6.4,11.1,13.2,5.3,25.5
			c-8.6-5-18-8.8-25.3-15.1c-21.4-18.7-26.8-47.8-14.8-73.1c11.3-23.9,38-38.5,64.3-35.3c27,3.3,48.2,23.5,53.9,50.8
			c4.2,20-0.4,38.8-14.8,52c-12.9,11.8-13.5,22.4-5.8,37.3c3.1-1.8,6.8-3.4,10-5.6c35.9-24.8,48.9-72,28.1-111.2
			c-7-13.2-2.8-18.6,8.1-25.7c21.1,29.1,27.1,61,17.1,95C291.9,268.8,265.4,293.2,224.8,305.2z"/>
		<path d="M0,187C-1.1,131.3,37.9,54,113.7,18.7C191.8-17.7,280,2.3,331.1,50.3c-4.6,3.8-9.2,7.5-13.6,11.2
			c-14.4-8.4-28.7-18.5-44.3-25.4C161-13.4,35.9,56.4,19.8,177.4C17.8,192.4,8.4,186.1,0,187z"/>
		<path d="M91,185.8c6.9-41.1,28.5-70.3,66.4-85.8c37.7-15.4,73.8-10.4,107.3,13.3c-8.8,15.3-10,15.6-24.9,7.9
			C191,95.8,132.4,120.4,114.1,174C109.1,188.7,109.1,188.7,91,185.8z"/>
		<path d="M353,186.7c-6.4,0-12,0-18.8,0c-11-64.7-48.7-105.4-113.9-120.1c-0.2-2.9-0.5-5.5-0.6-8.1c-0.1-3.4,0-6.7,0-10.1
			C277.8,51.6,347,106.1,353,186.7z"/>
	</g>
</g>
</svg>
