<?xml version="1.0" encoding="utf-8"?>
<!-- Generator: Adobe Illustrator 23.0.1, SVG Export Plug-In . SVG Version: 6.00 Build 0)  -->
<svg version="1.1" id="Layer_1" xmlns="http://www.w3.org/2000/svg" xmlns:xlink="http://www.w3.org/1999/xlink" x="0px" y="0px"
	 viewBox="0 0 400 400" style="enable-background:new 0 0 400 400;" xml:space="preserve">
<g>
	<g>
		<path d="M285.8,126.6c2.8-3.1,5.2-5.8,7.7-8.5c33,34.6,43.5,95.2,14.8,144.1c-30.2,51.5-88.1,73.6-143.4,57.9
			c-62.7-17.8-89.9-73.9-89.8-109.6c10.4-2.5,11-2.1,12.8,8c10.8,61.8,68.5,102.6,130.6,92.3c2.1-0.3,4.1-0.9,7-1.6
			c-2.1-9.2-4.1-18-5.8-25.5c11.8-6.9,23.6-12.5,33.9-20c15-10.9,23.7-26.5,27.9-44.6c2.4-10.5,2.4-10.5,14.2-8.9
			c-1.5,14.4-6,27.8-13.5,40.1c-9.6,15.7-22.8,27.5-39.2,35.9c-9.1,4.6-9.1,4.6-6.5,14.7c0.3,1.3,0.9,2.6,1.4,3.9
			C298.9,287.4,343.3,198.6,285.8,126.6z"/>
		<path d="M194.6,104.8c0,3.4,0,6.8,0,10.9c-26.8,2.8-48.8,14.2-64.4,36.4c-10.5,14.9-15.5,31.6-15.1,49.8
			c0.9,32.9,24.2,66.4,52.2,74.5c0.7-1.9,1.4-3.8,2.1-5.7c2.6-6.1,1.1-9.9-5.2-13.4c-15.6-8.7-25.3-22.3-30.4-39.3
			c-0.7-2.4-0.9-5-1.3-7.4c9.7-3,10.9-2.5,13.9,5.8c6.7,18.9,19.8,31.1,39.7,37.1c-3.1,13.2-6.1,26.1-9.1,38.9
			c-44.1-4.2-80.7-57.4-73.8-106.4C109.6,141.2,157.3,98.5,194.6,104.8z"/>
		<path d="M215.5,265.8c-3.1-12.7-5.8-24.3-8.7-35.9c-1.1-4.2,1.7-5,4.6-6.4c9.8-4.8,15.9-15.5,14.8-25.3
			c-1.4-12.2-8.6-20.7-20-23.8c-10.7-2.9-21.5,0.9-28.2,10c-9.1,12.3-5.9,31.1,7.8,37.8c8.2,4,7,8.3,3.3,15.9
			c-5.4-3.1-11.3-5.5-15.8-9.4c-13.4-11.7-16.7-29.9-9.2-45.7c7.1-14.9,23.8-24.1,40.2-22.1c16.9,2.1,30.1,14.7,33.7,31.8
			c2.6,12.5-0.2,24.2-9.2,32.5c-8.1,7.4-8.4,14-3.6,23.3c2-1.1,4.2-2.1,6.2-3.5c22.5-15.5,30.5-45,17.6-69.5
			c-4.4-8.2-1.7-11.6,5.1-16c13.2,18.2,16.9,38.1,10.7,59.4C257.4,243,240.9,258.2,215.5,265.8z"/>
		<path d="M75,191.9c-0.7-34.8,23.6-83.1,71-105.2c48.8-22.7,104-10.2,135.9,19.7c-2.9,2.4-5.7,4.7-8.5,7
			c-9-5.2-17.9-11.6-27.7-15.9c-70.1-30.9-148.3,12.7-158.4,88.3C86.1,195.3,80.2,191.3,75,191.9z"/>
		<path d="M131.9,191.2c4.3-25.7,17.8-44,41.5-53.6c23.6-9.6,46.1-6.5,67,8.3c-5.5,9.6-6.2,9.8-15.6,4.9
			c-30.5-15.9-67.1-0.5-78.6,33C143.2,193,143.2,193,131.9,191.2z"/>
		<path d="M295.6,191.7c-4,0-7.5,0-11.7,0c-6.9-40.4-30.4-65.9-71.2-75.1c-0.1-1.8-0.3-3.4-0.4-5c-0.1-2.1,0-4.2,0-6.3
			C248.6,107.2,291.9,141.3,295.6,191.7z"/>
	</g>
</g>
</svg>
