<?xml version="1.0" encoding="utf-8"?>
<!-- Generator: Adobe Illustrator 23.0.1, SVG Export Plug-In . SVG Version: 6.00 Build 0)  -->
<svg version="1.1" id="Layer_1" xmlns="http://www.w3.org/2000/svg" xmlns:xlink="http://www.w3.org/1999/xlink" x="0px" y="0px"
	 viewBox="0 0 400 400" style="enable-background:new 0 0 400 400;" xml:space="preserve">
<style type="text/css">
	.st0{fill:#663399;}
</style>
<g>
	<title>Gatsby icon</title>
	<path class="st0" d="M200,75c-69.6,0-125,55.4-125,125s55.4,125,125,125s125-55.4,125-125S269.6,75,200,75z M102.2,201.1l96.8,96.7
		C145.7,297.8,102.2,254.4,102.2,201.1z M221.7,295.7L104.3,178.3c9.8-43.5,48.9-76.1,95.6-76.1c31.3,0.1,60.8,15,79.4,40.2
		l-14.1,11.9c-15-21.9-39.8-34.9-66.3-34.8c-33.9-0.2-64.1,21.2-75,53.3L226.1,275c25-8.7,44.6-30.4,50-56.5h-42.4V200h64.1
		C297.8,246.7,265.2,285.9,221.7,295.7z"/>
</g>
</svg>
