<?xml version="1.0" encoding="utf-8"?>
<!-- Generator: Adobe Illustrator 23.0.1, SVG Export Plug-In . SVG Version: 6.00 Build 0)  -->
<svg version="1.1" id="Layer_1" xmlns="http://www.w3.org/2000/svg" xmlns:xlink="http://www.w3.org/1999/xlink" x="0px" y="0px"
	 viewBox="0 0 24 24" style="enable-background:new 0 0 24 24;" xml:space="preserve">
<style type="text/css">
	.st0{fill:#FFFFFF;}
</style>
<g>
	<g>
		<title>Gatsby icon</title>
		<path class="st0" d="M12,0C5.3,0,0,5.3,0,12s5.3,12,12,12s12-5.3,12-12S18.7,0,12,0z M2.6,12.1l9.3,9.3
			C6.8,21.4,2.6,17.2,2.6,12.1z M14.1,21.2L2.8,9.9C3.8,5.7,7.5,2.6,12,2.6c3,0,5.8,1.4,7.6,3.9l-1.4,1.1c-1.4-2.1-3.8-3.4-6.4-3.3
			c-3.3,0-6.2,2-7.2,5.1l9.8,9.8c2.4-0.8,4.3-2.9,4.8-5.4h-4.1V12h6.2C21.4,16.5,18.3,20.2,14.1,21.2z"/>
	</g>
</g>
</svg>
