<?xml version="1.0" encoding="utf-8"?>
<!-- Generator: Adobe Illustrator 23.0.1, SVG Export Plug-In . SVG Version: 6.00 Build 0)  -->
<svg version="1.1" id="Layer_1" xmlns="http://www.w3.org/2000/svg" xmlns:xlink="http://www.w3.org/1999/xlink" x="0px" y="0px"
	 viewBox="0 0 400 400" style="enable-background:new 0 0 400 400;" xml:space="preserve">
<style type="text/css">
	.st0{fill:#663399;}
</style>
<g>
	<title>Gatsby icon</title>
	<path class="st0" d="M200,0C88.7,0,0,88.7,0,200s88.7,200,200,200s200-88.7,200-200S311.3,0,200,0z M43.5,201.7l154.8,154.8
		C113,356.5,43.5,287,43.5,201.7z M234.8,353L47,165.2C62.6,95.6,125.2,43.5,200,43.5c50.1,0.1,97.3,24,127,64.4l-22.6,19.1
		c-23.9-35-63.7-55.9-106.1-55.6c-54.2-0.3-102.5,34-120,85.2L241.7,320c40-13.9,71.3-48.7,80-90.4h-67.8V200h102.6
		C356.5,274.8,304.4,337.4,234.8,353z"/>
</g>
</svg>
