<svg id="Layer_1" data-name="Layer 1" xmlns="http://www.w3.org/2000/svg" viewBox="0 0 200.00098 75.30322"><defs><style>.cls-1{font-size:15.9555px;font-family:Cinzel-Bold, Cinzel;font-weight:700;}.cls-1,.cls-7{fill:#062030;}.cls-2{letter-spacing:-0.02001em;}.cls-3{letter-spacing:-0.00401em;}.cls-4{letter-spacing:-0.01601em;}.cls-5{letter-spacing:-0.009em;}.cls-6{letter-spacing:-0.00796em;}.cls-7{font-size:5.06002px;font-family:Cinzel-Regular, Cinzel;}.cls-8{letter-spacing:-0.07006em;}.cls-9{letter-spacing:-0.02403em;}.cls-10{letter-spacing:-0.01004em;}.cls-11{letter-spacing:-0.01023em;}.cls-12{fill:#2d88c8;}</style></defs><title>ggc-name-logo</title><text class="cls-1" transform="translate(0 64.93799)">G<tspan class="cls-2" x="13.33887" y="0">o</tspan><tspan x="25.41699" y="0">w</tspan><tspan class="cls-3" x="39.29834" y="0">e</tspan><tspan x="48.2334" y="0">r </tspan><tspan class="cls-4" x="62.7207" y="0">G</tspan><tspan x="75.8042" y="0">iant C</tspan><tspan class="cls-5" x="130.11621" y="0">l</tspan><tspan x="138.73242" y="0">eani</tspan><tspan class="cls-6" x="176.05176" y="0">n</tspan><tspan x="188.35352" y="0">g</tspan></text><text class="cls-7" transform="translate(78.42822 73.69385)">Es<tspan class="cls-8" x="5.25732" y="0">t</tspan><tspan x="7.82764" y="0">ab</tspan><tspan class="cls-9" x="14.06689" y="0">l</tspan><tspan x="16.65723" y="0">ish</tspan><tspan class="cls-10" x="24.47021" y="0">e</tspan><tspan x="27.18213" y="0">d 1</tspan><tspan class="cls-11" x="34.03369" y="0">9</tspan><tspan x="36.81592" y="0">80</tspan></text><polygon class="cls-12" points="103.752 5.409 86.995 29.815 90.707 29.816 103.752 10.812 116.74 29.733 108.851 45.513 91.09 45.513 83.259 29.85 101.894 2.703 100.039 0 79.481 29.951 88.865 48.719 111.064 48.743 120.519 29.833 103.752 5.409"/></svg>