<?xml version="1.0" encoding="utf-8"?>
<!-- Generator: Adobe Illustrator 23.0.1, SVG Export Plug-In . SVG Version: 6.00 Build 0)  -->
<svg version="1.1" id="Layer_1" xmlns="http://www.w3.org/2000/svg" xmlns:xlink="http://www.w3.org/1999/xlink" x="0px" y="0px"
	 viewBox="0 0 24 24" style="enable-background:new 0 0 24 24;" xml:space="preserve">
<style type="text/css">
	.st0{fill:#FFFFFF;}
</style>
<g>
	<title>TypeScript icon</title>
	<path class="st0" d="M0,12v12h24V0H0V12z M19.3,11c0.6,0.2,1.1,0.4,1.5,0.9c0.2,0.2,0.5,0.7,0.6,0.8c0,0-1,0.7-1.7,1.1
		c0,0-0.1-0.1-0.2-0.2c-0.3-0.4-0.6-0.6-1.1-0.7c-0.7-0.1-1.2,0.3-1.2,1c0,0.2,0,0.3,0.1,0.4c0.2,0.3,0.5,0.5,1.4,0.9
		c1.7,0.7,2.5,1.2,2.9,1.9c0.5,0.8,0.6,2,0.3,2.9c-0.4,1-1.3,1.7-2.7,1.9c-0.4,0.1-1.4,0.1-1.8,0c-1-0.2-1.9-0.6-2.4-1.3
		c-0.2-0.2-0.7-0.9-0.6-0.9c0,0,0.1-0.1,0.2-0.1c0.1-0.1,0.5-0.3,0.9-0.5l0.7-0.4l0.1,0.2c0.2,0.3,0.6,0.7,0.9,0.9
		c0.8,0.4,1.8,0.3,2.3-0.1c0.2-0.2,0.3-0.4,0.3-0.7c0-0.3,0-0.4-0.2-0.6c-0.2-0.3-0.6-0.5-1.6-1c-1.2-0.5-1.8-0.9-2.3-1.4
		c-0.3-0.3-0.5-0.8-0.7-1.2c-0.1-0.3-0.1-1.2,0-1.5c0.3-1.2,1.2-2,2.5-2.3C17.9,10.9,18.9,10.9,19.3,11z M13.7,12l0,1h-3.1v8.9H8.4
		V13H5.3v-1c0-0.5,0-1,0-1c0,0,1.9,0,4.2,0l4.2,0L13.7,12z"/>
</g>
</svg>
